<svg width="25" height="22" viewBox="0 0 25 22" fill="none" xmlns="http://www.w3.org/2000/svg">
<path d="M24.1639 6.37296C23.7185 6.26907 23.2349 6.21876 22.7874 6.28493C21.8718 6.42053 20.966 6.63925 20.0612 6.84977C19.8457 6.90008 19.7271 6.87985 19.5879 6.68628C18.7744 5.55768 17.9629 4.42635 17.1158 3.32618C16.376 2.36491 15.5661 1.46706 14.586 0.772623C14.2535 0.536951 13.8916 0.32862 13.5178 0.180437C12.4872 -0.228024 11.6087 0.0716236 10.8967 0.931195C10.608 1.27951 10.3605 1.66555 10.0924 2.03245C8.82057 3.77292 7.21978 4.97698 5.14623 5.36903C4.42909 5.50464 3.69855 5.56315 2.97369 5.64681C1.28886 5.84147 0.482533 6.85797 0.714532 8.63289C0.828985 9.51051 1.02232 10.3941 1.30845 11.2253C1.9266 13.0199 2.62569 14.7833 3.30209 16.5549C3.32632 16.6184 3.46243 16.6802 3.53512 16.6681C4.00118 16.5921 4.46518 16.4997 4.92815 16.404C7.38579 15.8955 9.79497 15.2065 12.1232 14.2185C14.0184 13.4141 15.8197 12.4228 17.5159 11.2094C17.4793 11.2461 17.4437 11.2843 17.4056 11.3188C14.1246 14.2518 10.3863 16.2673 6.28405 17.5518C4.64253 18.0658 2.9742 18.4529 1.28267 18.7307C1.16564 18.7498 1.02077 18.8105 0.955295 18.9046C0.704737 19.2611 0.477378 19.6367 0.249503 20.0107C0.189699 20.1086 0.15361 20.224 0.114428 20.3344C-0.196966 21.2186 0.134535 21.8671 1.01922 21.9612C1.61108 22.0241 2.22253 22.0087 2.81335 21.9284C4.19916 21.7397 5.52928 21.2952 6.83466 20.7801C11.6943 18.8614 16.194 16.2378 20.3525 12.9575C21.7125 11.8847 23.0184 10.7375 24.0717 9.3153C24.4011 8.8702 24.6821 8.36332 24.8888 7.84222C25.178 7.11442 24.8914 6.54247 24.1639 6.37241V6.37296Z" fill="black"/>
</svg>
