<svg width="22" height="28" viewBox="0 0 22 28" fill="none" xmlns="http://www.w3.org/2000/svg">
<path d="M12.2964 0.800659C12.6629 0.956318 13.0618 1.0617 13.3884 1.27728C14.1483 1.77938 14.5285 2.52943 14.5388 3.43514C14.565 5.69357 14.2741 7.90033 13.3788 9.9969C13.3382 10.0919 13.2399 10.1911 13.145 10.2297C11.3344 10.9639 10.8902 13.2382 12.2992 14.5909C12.348 14.6377 12.4064 14.6742 12.4773 14.728C11.824 15.0957 11.3867 15.591 11.1584 16.2639C11.135 16.3334 11.0807 16.3968 11.0298 16.4533C9.66272 17.9685 7.96491 18.7792 5.92122 18.8433C5.60421 18.8529 5.28652 18.8453 4.96951 18.8488C4.64081 18.8522 4.46409 18.9975 4.45859 19.2627C4.45377 19.5361 4.62018 19.6739 4.95232 19.6849C6.24785 19.7283 7.51794 19.6174 8.72889 19.1057C9.50044 18.7799 10.2108 18.3563 10.8475 17.8108C10.9122 17.7557 10.9796 17.7041 11.0752 17.6262C11.322 18.5395 11.8653 19.1794 12.7303 19.5341C11.5187 20.7056 11.6273 22.807 13.2192 23.7727C12.1603 24.7397 12.0888 26.102 12.8899 27.1834C12.7915 27.1889 12.7131 27.1971 12.6347 27.1971C11.0566 27.1978 9.47843 27.2006 7.90027 27.1971C4.67382 27.1903 1.71211 25.2039 0.581614 22.1727C-0.557134 19.1194 0.0232422 16.2873 1.92391 13.699C2.58061 12.8036 3.42986 12.1114 4.36163 11.5094C5.28927 10.9109 6.25541 10.3489 7.09641 9.64219C9.00051 8.04084 10.1049 5.95943 10.4494 3.4868C10.5072 3.07148 10.5347 2.64996 10.5457 2.23051C10.5642 1.5328 10.8585 1.10164 11.5221 0.848183C11.5434 0.839918 11.5586 0.817189 11.5765 0.801348C11.8164 0.801348 12.0571 0.801348 12.2971 0.801348L12.2964 0.800659Z" fill="black"/>
<path d="M16.9297 18.8454C15.824 18.8454 14.7183 18.853 13.6132 18.8433C12.6374 18.8344 11.8803 18.0581 11.8755 17.0836C11.8707 16.1179 12.6292 15.3059 13.596 15.299C15.824 15.2845 18.0527 15.2832 20.2813 15.2997C21.2447 15.3073 22.017 16.1413 21.9998 17.0918C21.9826 18.0671 21.2234 18.8261 20.247 18.8454C20.2126 18.8454 20.1782 18.8475 20.1445 18.8475C19.0731 18.8475 18.0018 18.8475 16.9304 18.8475V18.8447L16.9297 18.8454Z" fill="black"/>
<path d="M16.7115 10.9064C17.5862 10.9064 18.4616 10.9037 19.3363 10.9071C20.3375 10.9106 21.1221 11.6964 21.118 12.6855C21.1139 13.6615 20.3355 14.4535 19.3521 14.4577C17.5938 14.4652 15.8355 14.4652 14.0772 14.4577C13.0869 14.4535 12.2927 13.6401 12.3023 12.6628C12.312 11.6937 13.1041 10.9113 14.0868 10.9071C14.9615 10.9037 15.8362 10.9064 16.7115 10.9064Z" fill="black"/>
<path d="M16.9148 23.2438C16.1172 23.2438 15.3202 23.2507 14.5225 23.2417C13.797 23.2334 13.251 22.8973 12.932 22.2506C12.628 21.6348 12.6789 21.0157 13.0736 20.4474C13.4326 19.9302 13.9518 19.6898 14.5706 19.687C16.1481 19.6795 17.7263 19.6726 19.3037 19.6891C20.2458 19.6988 21.0043 20.3648 21.0964 21.2113C21.201 22.1693 20.6735 22.9614 19.7631 23.1901C19.5829 23.2355 19.3904 23.241 19.2027 23.2424C18.4394 23.2479 17.6761 23.2445 16.9135 23.2445L16.9148 23.2438Z" fill="black"/>
<path d="M16.7126 24.0978C17.3989 24.0978 18.0851 24.0833 18.7707 24.1019C19.4838 24.1212 20.0951 24.6619 20.2162 25.3431C20.3448 26.0656 19.9886 26.7729 19.3263 27.0567C19.1352 27.1387 18.9151 27.1896 18.7075 27.191C17.3782 27.2027 16.0483 27.2 14.7191 27.1958C13.8843 27.1938 13.2008 26.5153 13.1788 25.6778C13.1568 24.8465 13.8155 24.1274 14.6538 24.1019C15.3394 24.0813 16.0256 24.0978 16.7119 24.0978H16.7126Z" fill="black"/>
</svg>
